<mxfile host="app.diagrams.net" modified="2024-04-11T08:21:07.590Z" agent="Mozilla/5.0 (Windows NT 10.0; Win64; x64) AppleWebKit/537.36 (KHTML, like Gecko) Chrome/123.0.0.0 Safari/537.36" etag="-dj_qqelFmwVa1adjjb4" version="24.2.3" type="device">
  <diagram name="Strona-1" id="YTQty1JrEi20K8JvkPSM">
    <mxGraphModel dx="1434" dy="780" grid="1" gridSize="10" guides="1" tooltips="1" connect="1" arrows="1" fold="1" page="1" pageScale="1" pageWidth="827" pageHeight="1169" math="0" shadow="0">
      <root>
        <mxCell id="0" />
        <mxCell id="1" parent="0" />
        <mxCell id="Qx32U31rJgnoh-MUbpF0-14" style="edgeStyle=orthogonalEdgeStyle;rounded=0;orthogonalLoop=1;jettySize=auto;html=1;shadow=1;endArrow=block;endFill=0;startArrow=none;startFill=0;" edge="1" parent="1" source="Qx32U31rJgnoh-MUbpF0-4" target="Qx32U31rJgnoh-MUbpF0-6">
          <mxGeometry relative="1" as="geometry" />
        </mxCell>
        <mxCell id="Qx32U31rJgnoh-MUbpF0-4" value="Rożek" style="whiteSpace=wrap;html=1;align=center;" vertex="1" parent="1">
          <mxGeometry x="220" y="300" width="100" height="40" as="geometry" />
        </mxCell>
        <mxCell id="Qx32U31rJgnoh-MUbpF0-17" style="edgeStyle=orthogonalEdgeStyle;rounded=0;orthogonalLoop=1;jettySize=auto;html=1;startArrow=ERoneToMany;startFill=0;endArrow=ERoneToMany;endFill=0;" edge="1" parent="1" source="Qx32U31rJgnoh-MUbpF0-5" target="Qx32U31rJgnoh-MUbpF0-7">
          <mxGeometry relative="1" as="geometry" />
        </mxCell>
        <mxCell id="Qx32U31rJgnoh-MUbpF0-18" value="opisuje" style="edgeLabel;html=1;align=center;verticalAlign=middle;resizable=0;points=[];" vertex="1" connectable="0" parent="Qx32U31rJgnoh-MUbpF0-17">
          <mxGeometry x="-0.0622" y="2" relative="1" as="geometry">
            <mxPoint as="offset" />
          </mxGeometry>
        </mxCell>
        <mxCell id="Qx32U31rJgnoh-MUbpF0-5" value="Kolor" style="whiteSpace=wrap;html=1;align=center;" vertex="1" parent="1">
          <mxGeometry x="480" y="420" width="100" height="40" as="geometry" />
        </mxCell>
        <mxCell id="Qx32U31rJgnoh-MUbpF0-12" style="edgeStyle=orthogonalEdgeStyle;rounded=0;orthogonalLoop=1;jettySize=auto;html=1;endArrow=ERoneToMany;endFill=0;startArrow=ERmandOne;startFill=0;" edge="1" parent="1" source="Qx32U31rJgnoh-MUbpF0-6" target="Qx32U31rJgnoh-MUbpF0-8">
          <mxGeometry relative="1" as="geometry">
            <Array as="points">
              <mxPoint x="410" y="230" />
              <mxPoint x="410" y="230" />
            </Array>
          </mxGeometry>
        </mxCell>
        <mxCell id="Qx32U31rJgnoh-MUbpF0-13" value="wskazuje" style="edgeLabel;html=1;align=center;verticalAlign=middle;resizable=0;points=[];" vertex="1" connectable="0" parent="Qx32U31rJgnoh-MUbpF0-12">
          <mxGeometry x="0.4765" y="2" relative="1" as="geometry">
            <mxPoint as="offset" />
          </mxGeometry>
        </mxCell>
        <mxCell id="Qx32U31rJgnoh-MUbpF0-6" value="Kontener" style="whiteSpace=wrap;html=1;align=center;" vertex="1" parent="1">
          <mxGeometry x="350" y="210" width="100" height="40" as="geometry" />
        </mxCell>
        <mxCell id="Qx32U31rJgnoh-MUbpF0-16" style="edgeStyle=orthogonalEdgeStyle;rounded=0;orthogonalLoop=1;jettySize=auto;html=1;endArrow=block;endFill=0;" edge="1" parent="1" source="Qx32U31rJgnoh-MUbpF0-7" target="Qx32U31rJgnoh-MUbpF0-6">
          <mxGeometry relative="1" as="geometry" />
        </mxCell>
        <mxCell id="Qx32U31rJgnoh-MUbpF0-7" value="Kubek" style="whiteSpace=wrap;html=1;align=center;" vertex="1" parent="1">
          <mxGeometry x="480" y="300" width="100" height="40" as="geometry" />
        </mxCell>
        <mxCell id="Qx32U31rJgnoh-MUbpF0-8" value="Pozycja" style="whiteSpace=wrap;html=1;align=center;" vertex="1" parent="1">
          <mxGeometry x="360" y="80" width="100" height="40" as="geometry" />
        </mxCell>
        <mxCell id="Qx32U31rJgnoh-MUbpF0-9" value="Zamówienie" style="whiteSpace=wrap;html=1;align=center;" vertex="1" parent="1">
          <mxGeometry x="80" y="80" width="100" height="40" as="geometry" />
        </mxCell>
        <mxCell id="Qx32U31rJgnoh-MUbpF0-10" value="" style="edgeStyle=entityRelationEdgeStyle;fontSize=12;html=1;endArrow=ERzeroToMany;endFill=1;rounded=0;startArrow=ERmandOne;startFill=0;" edge="1" parent="1" source="Qx32U31rJgnoh-MUbpF0-9" target="Qx32U31rJgnoh-MUbpF0-8">
          <mxGeometry width="100" height="100" relative="1" as="geometry">
            <mxPoint x="510" y="350" as="sourcePoint" />
            <mxPoint x="610" y="250" as="targetPoint" />
          </mxGeometry>
        </mxCell>
        <mxCell id="Qx32U31rJgnoh-MUbpF0-11" value="Zawiera" style="edgeLabel;html=1;align=center;verticalAlign=middle;resizable=0;points=[];" vertex="1" connectable="0" parent="Qx32U31rJgnoh-MUbpF0-10">
          <mxGeometry x="-0.0889" relative="1" as="geometry">
            <mxPoint as="offset" />
          </mxGeometry>
        </mxCell>
      </root>
    </mxGraphModel>
  </diagram>
</mxfile>
